<svg width="218" height="35" viewBox="0 0 218 35" fill="none" xmlns="http://www.w3.org/2000/svg">
    <path d="M198.594 4.04395H203.223V26.4253H217.192V30.6386H198.594V4.04395Z" fill="black"/>
    <path d="M174.004 4.04395H178.633V26.4253H192.612V30.6386H174.004V4.04395Z" fill="black"/>
    <path d="M156.212 31.0569C154.49 31.0569 152.937 30.8079 151.543 30.3199C150.149 29.8218 148.964 29.0848 147.979 28.0987C146.993 27.1126 146.237 25.8874 145.699 24.4332C145.171 22.979 144.902 21.2857 144.902 19.3633V4.05396H149.532V19.174C149.532 21.6542 150.129 23.5467 151.334 24.8316C152.529 26.1265 154.181 26.7739 156.292 26.7739C158.383 26.7739 160.016 26.1564 161.22 24.9113C162.415 23.6662 163.022 21.8235 163.022 19.3633V4.05396H167.652V19.1342C167.652 21.1064 167.383 22.8395 166.836 24.3336C166.288 25.8277 165.521 27.0727 164.536 28.0787C163.55 29.0748 162.355 29.8218 160.952 30.3199C159.538 30.8079 157.955 31.0569 156.212 31.0569Z" fill="black"/>
    <path d="M96.2944 26.4253C97.6883 26.4253 98.9526 26.2061 100.088 25.7579C101.223 25.3097 102.198 24.6921 102.995 23.8853C103.791 23.0885 104.409 22.1323 104.857 21.0266C105.305 19.921 105.524 18.7258 105.524 17.4209V17.3413C105.524 16.0464 105.305 14.8312 104.857 13.7156C104.419 12.5901 103.791 11.6339 102.995 10.837C102.198 10.0302 101.233 9.40272 100.088 8.94454C98.9526 8.48635 97.6783 8.25726 96.2944 8.25726H91.0575V26.4153H96.2944V26.4253ZM86.418 4.04395H96.3242C98.3951 4.04395 100.307 4.38261 102.039 5.04997C103.771 5.71732 105.265 6.65362 106.519 7.83892C107.774 9.03418 108.739 10.4286 109.426 12.0323C110.113 13.6359 110.452 15.379 110.452 17.2516V17.3413C110.452 19.2138 110.113 20.9669 109.426 22.5805C108.739 24.2041 107.774 25.6085 106.519 26.7938C105.265 27.9791 103.771 28.9254 102.039 29.6027C100.307 30.2899 98.3951 30.6286 96.3242 30.6286H86.418V4.04395Z" fill="black"/>
    <path d="M64.5653 15.1002H68.05H77.8865V19.3135H64.5653V26.4253H79.7881V30.6386H59.9258V15.1002H64.5653Z" fill="black"/>
    <path d="M59.9258 4.04395H79.599V8.26721H68.05H64.5653H59.9258V4.04395Z" fill="black"/>
    <path d="M41.6165 17.2317C43.2891 17.2317 44.6332 16.8333 45.6188 16.0265C46.6144 15.2296 47.1023 14.1439 47.1023 12.7694V12.6897C47.1023 11.2355 46.6244 10.1398 45.6487 9.39276C44.683 8.63576 43.3289 8.26721 41.5766 8.26721H34.7567V17.2317H41.6165ZM30.1272 4.04395H41.9749C43.6475 4.04395 45.1309 4.283 46.4153 4.75115C47.7095 5.21929 48.7849 5.8767 49.6411 6.70342C50.348 7.4405 50.8955 8.28714 51.2738 9.25331C51.6521 10.2195 51.8414 11.2753 51.8414 12.4407V12.5204C51.8414 13.6061 51.6821 14.5921 51.3635 15.4687C51.0449 16.3452 50.6068 17.1122 50.0492 17.7895C49.4917 18.4568 48.8246 19.0345 48.058 19.5027C47.2815 19.9708 46.4352 20.3294 45.4994 20.5884L52.6777 30.6585H47.1719L40.6209 21.3852H40.5413H34.7468V30.6585H30.1172V4.04395H30.1272Z" fill="black"/>
    <path d="M120.069 8.07799H130.523C131.489 8.07799 132.395 8.46646 133.082 9.14377C133.759 9.82109 134.147 10.7374 134.147 11.7036C134.147 12.6698 133.759 13.5762 133.082 14.2635C132.405 14.9408 131.489 15.3293 130.523 15.3293H116.047V19.3633H130.523C131.489 19.3633 132.395 19.7517 133.082 20.4291C133.759 21.1064 134.147 22.0227 134.147 22.9889C134.147 23.9551 133.759 24.8615 133.082 25.5488C132.405 26.2261 131.489 26.6145 130.523 26.6145H120.069C120.069 29.3039 120.069 31.9932 120.069 34.6826H124.101V30.6486H130.523C132.554 30.6486 134.495 29.8418 135.929 28.3975C137.373 26.9632 138.179 25.0208 138.179 22.9889C138.179 20.957 137.373 19.0147 135.929 17.5803C135.899 17.5505 135.869 17.5206 135.83 17.4807L135.69 17.3413L135.83 17.2018C135.859 17.172 135.899 17.1421 135.929 17.1022C137.363 15.6679 138.179 13.7256 138.179 11.6937C138.179 9.66172 137.373 7.71941 135.929 6.28509C134.495 4.84081 132.554 4.03402 130.523 4.03402H124.101V0H120.069C120.069 2.6993 120.069 5.38865 120.069 8.07799Z" fill="black"/>
    <path d="M4.30108 8.3469H23.566V4.05391H14.2272V0.0198975H9.92628V4.05391C6.62087 4.05391 3.30541 4.05391 0 4.05391C0 12.112 0 22.6004 0 30.6585C3.30541 30.6585 6.62087 30.6585 9.92628 30.6585V34.6825H14.2272V30.6585H23.566V26.3555H4.30108V8.3469Z" fill="black"/>
</svg>
